<?xml version="1.0" encoding="UTF-8" standalone="no" ?>
<!DOCTYPE svg PUBLIC "-//W3C//DTD SVG 1.1//EN" "http://www.w3.org/Graphics/SVG/1.1/DTD/svg11.dtd">
<svg xmlns="http://www.w3.org/2000/svg" xmlns:xlink="http://www.w3.org/1999/xlink" version="1.1" width="1080" height="1080" viewBox="0 0 1080 1080" xml:space="preserve">
<desc>Created with Fabric.js 5.2.4</desc>
<defs>
</defs>
<g transform="matrix(1 0 0 1 540 540)" id="70d92ebe-3bce-4468-b4e2-a7aaeee564e5"  >
</g>
<g transform="matrix(1 0 0 1 540 540)" id="35710c74-1174-42c4-bb9a-71cf0677651b"  >
<rect style="stroke: none; stroke-width: 1; stroke-dasharray: none; stroke-linecap: butt; stroke-dashoffset: 0; stroke-linejoin: miter; stroke-miterlimit: 4; fill: rgb(255,255,255); fill-rule: nonzero; opacity: 1; visibility: hidden;" vector-effect="non-scaling-stroke"  x="-540" y="-540" rx="0" ry="0" width="1080" height="1080" />
</g>
<g transform="matrix(1.57 0 0 1.57 540 516.26)"  >
<g style="" vector-effect="non-scaling-stroke"   >
		<g transform="matrix(1 0 0 1 0 0)"  >
<path style="stroke: none; stroke-width: 1; stroke-dasharray: none; stroke-linecap: butt; stroke-dashoffset: 0; stroke-linejoin: miter; stroke-miterlimit: 4; fill: rgb(104,225,253); fill-rule: nonzero; opacity: 0.24;" vector-effect="non-scaling-stroke"  transform=" translate(-343.04, -255.59)" d="M 626.34 280.12 C 622.65 328.4 588.21 372.52 591.51 420.12 C 591.65 422.12 591.84 424.12 592.11 426.05 C 592.73 430.77000000000004 593.75 435.43 594.75 440.05 C 596.1 446.34000000000003 597.4 452.63 597.61 459.05 C 597.85 466.68 596.11 474.86 591.92 481.05 C 589.9787451545124 483.9359859323017 587.394302303675 486.3321581118861 584.37 488.05 C 583.6680983117104 488.4360678279609 582.9471837473649 488.78651240785115 582.21 489.1 C 578.0861027456826 490.6833864837129 573.754337966705 491.6602230201853 569.35 492 C 505.55 498.72 442.1 475.88 377.92 476.64 C 323.92 477.28 270.92 494.64 217.49 500.76 C 209.49 501.7 201.49 502.38 193.49 502.68 Q 182.39000000000001 503.2 171.26000000000002 502.68 C 168.46 502.53000000000003 165.71 502.34000000000003 162.96 502.12 C 159.25 501.81 155.56 501.36 151.85000000000002 500.79 C 131.09000000000003 497.79 110.75000000000003 490.98 94.45000000000002 477.96000000000004 C 62.000000000000014 452.00000000000006 51.750000000000014 403.90000000000003 65.11000000000001 364.49 C 73.79000000000002 338.86 91.24000000000001 315.6 92.59000000000002 288.62 C 94.10000000000002 258.46 75.23000000000002 231.32 69.01000000000002 201.76 C 66.32000000000002 189.23 66.01000000000002 176.31 66.36000000000001 163.53 C 66.99000000000001 143.29 70.36000000000001 121.25 85.12000000000002 107.43 C 89.13025044215983 103.82143829832229 93.58253315448792 100.7367624266867 98.37 98.25000000000001 C 101.01000000000002 96.82 103.65000000000002 95.5 106.37000000000002 94.18 C 116.86000000000001 89 127.47000000000003 83.91000000000001 138.08 79 Q 195.08 52.21 253.67000000000002 29.17 C 277 20 300.85 11.130000000000003 325.83000000000004 8.760000000000002 C 371.62000000000006 4.450000000000002 416.47 22.19 458 42.08 C 480.16 52.73 502.05 64.08 524.81 73.57 C 530.66 75.97999999999999 536.55 78.28999999999999 542.52 80.36 C 547.6899999999999 82.22 552.9399999999999 83.95 558.22 85.45 C 564.97 87.45 574.08 88.03 581.22 90.63 L 582.69 91.19 C 584.6300196282875 91.96731601676044 586.425160030655 93.0660366020136 588 94.43999999999998 L 588.3 94.71 C 602.37 107.99 607.7299999999999 144.3 611.8199999999999 162.62 C 617.03 185.86 620.2299999999999 209.53 623.3699999999999 233.13 C 625.4299999999998 248.72 627.5199999999999 264.45 626.3399999999999 280.12 z" stroke-linecap="round" />
</g>
		<g transform="matrix(1 0 0 1 61.54 107.7)"  >
<path style="stroke: none; stroke-width: 1; stroke-dasharray: none; stroke-linecap: butt; stroke-dashoffset: 0; stroke-linejoin: miter; stroke-miterlimit: 4; fill: rgb(104,225,253); fill-rule: nonzero; opacity: 1;" vector-effect="non-scaling-stroke"  transform=" translate(-404.58, -363.29)" d="M 468.79 345.37 L 476.15000000000003 311.9 L 474.56000000000006 304.46 L 432.81000000000006 308.82 C 432.81000000000006 308.82 427.81000000000006 338.55 413.62000000000006 328.62 C 399.43000000000006 318.69 411.9200000000001 307.37 411.9200000000001 307.37 L 410.3300000000001 299.93 L 369.0000000000001 303.39 L 361.73000000000013 343.74 C 361.73000000000013 343.74 344.03000000000014 332.19 335.6300000000001 341.52 C 329.6900000000001 348.12 334.3000000000001 363.65999999999997 344.92000000000013 365.68 C 349.22488389182365 366.5758201476116 353.65646025336224 366.6842379179244 358.0000000000001 366 L 347.7800000000001 405.65999999999997 L 349.37000000000006 413.09999999999997 L 453.00000000000006 426.65 z" stroke-linecap="round" />
</g>
		<g transform="matrix(1 0 0 1 61.54 107.7)"  >
<linearGradient id="SVGID_16" gradientUnits="userSpaceOnUse" gradientTransform="matrix(1 0 0 1 0 0)"  x1="390.91" y1="274.27" x2="446.18" y2="504.55">
<stop offset="0%" style="stop-color:rgb(1,1,1);stop-opacity: 0"/>
<stop offset="95%" style="stop-color:rgb(1,1,1);stop-opacity: 1"/>
</linearGradient>
<path style="stroke: none; stroke-width: 1; stroke-dasharray: none; stroke-linecap: butt; stroke-dashoffset: 0; stroke-linejoin: miter; stroke-miterlimit: 4; fill: url(#SVGID_16); fill-rule: nonzero; opacity: 1;" vector-effect="non-scaling-stroke"  transform=" translate(-404.58, -363.29)" d="M 468.79 345.37 L 476.15000000000003 311.9 L 474.56000000000006 304.46 L 432.81000000000006 308.82 C 432.81000000000006 308.82 427.81000000000006 338.55 413.62000000000006 328.62 C 399.43000000000006 318.69 411.9200000000001 307.37 411.9200000000001 307.37 L 410.3300000000001 299.93 L 369.0000000000001 303.39 L 361.73000000000013 343.74 C 361.73000000000013 343.74 344.03000000000014 332.19 335.6300000000001 341.52 C 329.6900000000001 348.12 334.3000000000001 363.65999999999997 344.92000000000013 365.68 C 349.22488389182365 366.5758201476116 353.65646025336224 366.6842379179244 358.0000000000001 366 L 347.7800000000001 405.65999999999997 L 349.37000000000006 413.09999999999997 L 453.00000000000006 426.65 z" stroke-linecap="round" />
</g>
		<g transform="matrix(1 0 0 1 -130.23 86.75)"  >
<path style="stroke: none; stroke-width: 1; stroke-dasharray: none; stroke-linecap: butt; stroke-dashoffset: 0; stroke-linejoin: miter; stroke-miterlimit: 4; fill: rgb(104,225,253); fill-rule: nonzero; opacity: 1;" vector-effect="non-scaling-stroke"  transform=" translate(-212.81, -342.33)" d="M 226.46 407.23 L 259.26 417.13 L 269.53 411.46 L 265.64 374.14 C 265.64 374.14 236.39 366.87 247.36999999999998 353.5 C 258.34999999999997 340.13 268.69 353.43 268.69 353.43 L 279 347.76 L 276 310.94 L 236.26 300.6 C 236.26 300.6 251.26 278.87 242.64 269.78000000000003 C 236.51 263.35 218.5 271.78000000000003 215.64 282.17 C 214.4313521140822 286.39045861389025 213.99102011457367 290.79377860897534 214.33999999999997 295.17 L 178.33999999999997 277.29 L 168.06999999999996 283 L 146.61999999999998 385.27 z" stroke-linecap="round" />
</g>
		<g transform="matrix(1 0 0 1 -130.23 86.75)"  >
<linearGradient id="SVGID_17" gradientUnits="userSpaceOnUse" gradientTransform="matrix(1 0 0 1 0 0)"  x1="254.17" y1="239.77" x2="170.73" y2="493.25">
<stop offset="0%" style="stop-color:rgb(1,1,1);stop-opacity: 0"/>
<stop offset="95%" style="stop-color:rgb(1,1,1);stop-opacity: 1"/>
</linearGradient>
<path style="stroke: none; stroke-width: 1; stroke-dasharray: none; stroke-linecap: butt; stroke-dashoffset: 0; stroke-linejoin: miter; stroke-miterlimit: 4; fill: url(#SVGID_17); fill-rule: nonzero; opacity: 1;" vector-effect="non-scaling-stroke"  transform=" translate(-212.81, -342.33)" d="M 226.46 407.23 L 259.26 417.13 L 269.53 411.46 L 265.64 374.14 C 265.64 374.14 236.39 366.87 247.36999999999998 353.5 C 258.34999999999997 340.13 268.69 353.43 268.69 353.43 L 279 347.76 L 276 310.94 L 236.26 300.6 C 236.26 300.6 251.26 278.87 242.64 269.78000000000003 C 236.51 263.35 218.5 271.78000000000003 215.64 282.17 C 214.4313521140822 286.39045861389025 213.99102011457367 290.79377860897534 214.33999999999997 295.17 L 178.33999999999997 277.29 L 168.06999999999996 283 L 146.61999999999998 385.27 z" stroke-linecap="round" />
</g>
		<g transform="matrix(1 0 0 1 -92.59 -52.39)"  >
<linearGradient id="SVGID_18" gradientUnits="userSpaceOnUse" gradientTransform="matrix(1 0 0 1 0 0)"  x1="264.86" y1="142.42" x2="238.91" y2="263.03">
<stop offset="0%" style="stop-color:rgb(1,1,1);stop-opacity: 0"/>
<stop offset="95%" style="stop-color:rgb(1,1,1);stop-opacity: 1"/>
</linearGradient>
<path style="stroke: none; stroke-width: 1; stroke-dasharray: none; stroke-linecap: butt; stroke-dashoffset: 0; stroke-linejoin: miter; stroke-miterlimit: 4; fill: url(#SVGID_18); fill-rule: nonzero; opacity: 1;" vector-effect="non-scaling-stroke"  transform=" translate(-250.45, -203.19)" d="M 190.85 196.21 L 174.62 214 L 172.49 225.16 L 212.17000000000002 242.88 C 212.17000000000002 242.88 227.05 216.66 236.97000000000003 230.82999999999998 C 241.97000000000003 237.92 237.08000000000004 242.46999999999997 233.43000000000004 240.21999999999997 L 231.30000000000004 251.37999999999997 L 270.30000000000007 269.79999999999995 L 289.43000000000006 236.49999999999994 C 289.43000000000006 236.49999999999994 305.7300000000001 244.28999999999994 313.52000000000004 240.03999999999994 C 317.62000000000006 237.79999999999993 319.99000000000007 233.39999999999995 320.92 229.93999999999994 C 320.92 229.93999999999994 322.85 220.06999999999994 322.38 218.77999999999994 C 321.52 216.44999999999993 317.04 221.22999999999993 314.23 219.48999999999995 C 305.02000000000004 213.81999999999996 301.48 216.65999999999994 301.48 216.65999999999994 L 326.27000000000004 173.43999999999994 L 328.40000000000003 162.27999999999994 L 237.71000000000004 136.58999999999995 z" stroke-linecap="round" />
</g>
		<g transform="matrix(1 0 0 1 -91.53 -63.54)"  >
<path style="stroke: none; stroke-width: 1; stroke-dasharray: none; stroke-linecap: butt; stroke-dashoffset: 0; stroke-linejoin: miter; stroke-miterlimit: 4; fill: rgb(104,225,253); fill-rule: nonzero; opacity: 1;" vector-effect="non-scaling-stroke"  transform=" translate(-251.51, -192.05)" d="M 193 185.05 L 174.62 214 L 214.29000000000002 231.72 C 214.29000000000002 231.72 225.63000000000002 210.81 239.09000000000003 219.72 C 251.37000000000003 227.8 233.43000000000004 240.27 233.43000000000004 240.27 L 272.43000000000006 258.69 L 291.56000000000006 225.39 C 291.56000000000006 225.39 307.8500000000001 233.17999999999998 315.65000000000003 228.92999999999998 C 323.45 224.67999999999998 325.57000000000005 214.04999999999998 316.35 208.37999999999997 C 307.13 202.70999999999995 303.6 205.54999999999995 303.6 205.54999999999995 L 328.40000000000003 162.32999999999996 L 239.80000000000004 125.40999999999995 z" stroke-linecap="round" />
</g>
		<g transform="matrix(1 0 0 1 -91.53 -63.54)"  >
<linearGradient id="SVGID_19" gradientUnits="userSpaceOnUse" gradientTransform="matrix(1 0 0 1 0 0)"  x1="224.06" y1="144.61" x2="323.25" y2="301.91">
<stop offset="0%" style="stop-color:rgb(255,255,255);stop-opacity: 0"/>
<stop offset="95%" style="stop-color:rgb(255,255,255);stop-opacity: 1"/>
</linearGradient>
<path style="stroke: none; stroke-width: 1; stroke-dasharray: none; stroke-linecap: butt; stroke-dashoffset: 0; stroke-linejoin: miter; stroke-miterlimit: 4; fill: url(#SVGID_19); fill-rule: nonzero; opacity: 1;" vector-effect="non-scaling-stroke"  transform=" translate(-251.51, -192.05)" d="M 193 185.05 L 174.62 214 L 214.29000000000002 231.72 C 214.29000000000002 231.72 225.63000000000002 210.81 239.09000000000003 219.72 C 251.37000000000003 227.8 233.43000000000004 240.27 233.43000000000004 240.27 L 272.43000000000006 258.69 L 291.56000000000006 225.39 C 291.56000000000006 225.39 307.8500000000001 233.17999999999998 315.65000000000003 228.92999999999998 C 323.45 224.67999999999998 325.57000000000005 214.04999999999998 316.35 208.37999999999997 C 307.13 202.70999999999995 303.6 205.54999999999995 303.6 205.54999999999995 L 328.40000000000003 162.32999999999996 L 239.80000000000004 125.40999999999995 z" stroke-linecap="round" />
</g>
		<g transform="matrix(1 0 0 1 93.06 -41.75)"  >
<linearGradient id="SVGID_20" gradientUnits="userSpaceOnUse" gradientTransform="matrix(0.68 0.74 -0.74 0.68 0.38 198.8)"  x1="309.72" y1="-371.68" x2="283.76" y2="-251.07">
<stop offset="0%" style="stop-color:rgb(1,1,1);stop-opacity: 0"/>
<stop offset="95%" style="stop-color:rgb(1,1,1);stop-opacity: 1"/>
</linearGradient>
<path style="stroke: none; stroke-width: 1; stroke-dasharray: none; stroke-linecap: butt; stroke-dashoffset: 0; stroke-linejoin: miter; stroke-miterlimit: 4; fill: url(#SVGID_20); fill-rule: nonzero; opacity: 1;" vector-effect="non-scaling-stroke"  transform=" translate(-436.1, -213.84)" d="M 393.62 264.83 L 431.07 256.32 C 431.07 256.32 436.39 273.59 444.8 276.44 C 449.22 277.93 454.06 276.69 457.23 275.03 C 457.23 275.03 465.8 269.75 466.43 268.53999999999996 C 467.56 266.31999999999994 461.02 266.27 460.38 263.03 C 458.3 252.40999999999997 453.82 251.72999999999996 453.82 251.72999999999996 L 502.4 240.65999999999997 L 512.05 234.65999999999997 L 469.44999999999993 150.56999999999996 L 393.8599999999999 156.56999999999996 L 369.7899999999999 156.67999999999998 L 360.1499999999999 162.67999999999998 L 373.99999999999994 203.86999999999998 C 373.99999999999994 203.86999999999998 403.35999999999996 197.03999999999996 399.65999999999997 213.92999999999998 C 397.82 222.37999999999997 391.17999999999995 221.92999999999998 390.35999999999996 217.68999999999997 L 380.71 223.68999999999997" stroke-linecap="round" />
</g>
		<g transform="matrix(1 0 0 1 97.87 -47.72)"  >
<path style="stroke: none; stroke-width: 1; stroke-dasharray: none; stroke-linecap: butt; stroke-dashoffset: 0; stroke-linejoin: miter; stroke-miterlimit: 4; fill: rgb(104,225,253); fill-rule: nonzero; opacity: 1;" vector-effect="non-scaling-stroke"  transform=" translate(-440.9, -207.87)" d="M 403.51 150.57 L 369.78999999999996 156.69 L 383.66999999999996 197.87 C 383.66999999999996 197.87 406.71999999999997 192.03 409.34 207.93 C 411.71999999999997 222.44 390.39 217.69 390.39 217.69 L 403.26 258.83 L 440.71 250.32 C 440.71 250.32 446.03 267.58 454.44 270.43 C 462.85 273.28000000000003 472.1 267.64 470 257 C 467.9 246.36 463.43 245.71 463.43 245.71 L 512.02 234.64000000000001 L 479.09999999999997 144.57000000000002 z" stroke-linecap="round" />
</g>
		<g transform="matrix(1 0 0 1 97.85 -47.73)"  >
<linearGradient id="SVGID_21" gradientUnits="userSpaceOnUse" gradientTransform="matrix(1 0 0 1 0 0)"  x1="364.28" y1="293.83" x2="766.03" y2="-220.58">
<stop offset="0%" style="stop-color:rgb(1,1,1);stop-opacity: 0"/>
<stop offset="95%" style="stop-color:rgb(1,1,1);stop-opacity: 1"/>
</linearGradient>
<path style="stroke: none; stroke-width: 1; stroke-dasharray: none; stroke-linecap: butt; stroke-dashoffset: 0; stroke-linejoin: miter; stroke-miterlimit: 4; fill: url(#SVGID_21); fill-rule: nonzero; opacity: 1;" vector-effect="non-scaling-stroke"  transform=" translate(-440.89, -207.86)" d="M 470 257 C 472.08 267.61 462.83 273.27 454.41 270.4 C 445.99000000000007 267.53 440.67 250.32 440.67 250.32 L 403.22 258.81 L 390.35 217.67000000000002 C 390.35 217.67000000000002 411.68 222.42000000000002 409.3 207.93 C 406.7 192 383.63 197.85 383.63 197.85 L 369.78 156.67 L 403.48999999999995 150.54999999999998 L 442.99999999999994 147.43999999999997 L 479.0899999999999 144.56999999999996 L 495.6599999999999 189.86999999999995 L 497.12999999999994 193.86999999999995 L 503.12999999999994 210.28999999999996 L 511.99999999999994 234.66999999999996 L 463.41999999999996 245.72999999999996 C 463.41999999999996 245.72999999999996 467.99999999999994 246.40999999999997 469.99999999999994 256.99999999999994 z" stroke-linecap="round" />
</g>
		<g transform="matrix(1 0 0 1 113.1 -69.56)"  >
<linearGradient id="SVGID_22" gradientUnits="userSpaceOnUse" gradientTransform="matrix(1 0 0 1 0 0)"  x1="457.03" y1="227.68" x2="450.12" y2="-25.27">
<stop offset="0%" style="stop-color:rgb(1,1,1);stop-opacity: 0"/>
<stop offset="95%" style="stop-color:rgb(1,1,1);stop-opacity: 1"/>
</linearGradient>
<path style="stroke: none; stroke-width: 1; stroke-dasharray: none; stroke-linecap: butt; stroke-dashoffset: 0; stroke-linejoin: miter; stroke-miterlimit: 4; fill: url(#SVGID_22); fill-rule: nonzero; opacity: 1;" vector-effect="non-scaling-stroke"  transform=" translate(-456.13, -186.04)" d="M 448.83 201.39 L 443.34999999999997 209.39 C 446.92999999999995 208.76 450.7 209.77999999999997 454.21999999999997 208.88 C 455.91678848504796 208.3470769827393 457.55516784974435 207.64347848256293 459.10999999999996 206.78 C 463.06033769180567 204.99532176257512 467.1383228549981 203.50785996124677 471.30999999999995 202.33000000000004 L 488.62999999999994 197 C 491.5199999999999 196.11 495.23999999999995 195.45 497.0899999999999 197.84 L 492.6499999999999 178.6 C 492.5344520302463 177.73179897069284 492.18923458216534 176.9101814442602 491.6499999999999 176.22 C 490.87840838204653 175.5958523576335 489.92213123723394 175.244279877923 488.9299999999999 175.22 C 481.3599999999999 174.28 472.5699999999999 176.01 466.9299999999999 170.85 C 464.1699999999999 168.31 462.5399999999999 164.32999999999998 459.0099999999999 163.06 C 456.0099999999999 161.99 452.65999999999985 163.33 450.2299999999999 165.36 C 447.79999999999995 167.39000000000001 445.9899999999999 170.07000000000002 443.7599999999999 172.31 C 435.4899999999999 180.59 421.83999999999986 182.56 415.1799999999999 192.19 C 426.6199999999999 194.8 436.9899999999999 183.63 448.7199999999999 183.42 C 445.3499999999999 183.48 438.9099999999999 189.78 436.2999999999999 191.82 C 433.4499999999999 194.07 428.2999999999999 197.01 428.0899999999999 201.04 C 427.50999999999993 211.73999999999998 444.5799999999999 203.34 448.8299999999999 201.39 z" stroke-linecap="round" />
</g>
		<g transform="matrix(1 0 0 1 -121.49 83.92)"  >
<path style="stroke: none; stroke-width: 1; stroke-dasharray: none; stroke-linecap: butt; stroke-dashoffset: 0; stroke-linejoin: miter; stroke-miterlimit: 4; fill: rgb(104,225,253); fill-rule: nonzero; opacity: 1;" vector-effect="non-scaling-stroke"  transform=" translate(-221.55, -339.5)" d="M 236.73 401.56 L 269.53 411.46 L 275.91999999999996 368.46 C 275.91999999999996 368.46 246.66999999999996 361.18 257.64 347.81 C 268.61 334.44 278.96 347.74 278.96 347.74 L 286.21999999999997 305.25 L 246.52999999999997 294.91 C 246.52999999999997 294.91 254.57999999999998 280.72 245.91999999999996 271.63 C 239.79999999999995 265.2 228.76999999999995 266.04 225.91999999999996 276.48 C 224.71106144623883 280.70037062064307 224.27405173482907 285.1043444565553 224.62999999999997 289.48 L 178.32999999999998 277.27000000000004 L 156.89 379.6 z" stroke-linecap="round" />
</g>
		<g transform="matrix(1 0 0 1 -121.49 83.92)"  >
<linearGradient id="SVGID_23" gradientUnits="userSpaceOnUse" gradientTransform="matrix(1 0 0 1 0 0)"  x1="228.02" y1="304.66" x2="124.57" y2="939.51">
<stop offset="0%" style="stop-color:rgb(1,1,1);stop-opacity: 0"/>
<stop offset="95%" style="stop-color:rgb(1,1,1);stop-opacity: 1"/>
</linearGradient>
<path style="stroke: none; stroke-width: 1; stroke-dasharray: none; stroke-linecap: butt; stroke-dashoffset: 0; stroke-linejoin: miter; stroke-miterlimit: 4; fill: url(#SVGID_23); fill-rule: nonzero; opacity: 1;" vector-effect="non-scaling-stroke"  transform=" translate(-221.55, -339.5)" d="M 236.73 401.56 L 269.53 411.46 L 275.91999999999996 368.46 C 275.91999999999996 368.46 246.66999999999996 361.18 257.64 347.81 C 268.61 334.44 278.96 347.74 278.96 347.74 L 286.21999999999997 305.25 L 246.52999999999997 294.91 C 246.52999999999997 294.91 254.57999999999998 280.72 245.91999999999996 271.63 C 239.79999999999995 265.2 228.76999999999995 266.04 225.91999999999996 276.48 C 224.71106144623883 280.70037062064307 224.27405173482907 285.1043444565553 224.62999999999997 289.48 L 178.32999999999998 277.27000000000004 L 156.89 379.6 z" stroke-linecap="round" />
</g>
		<g transform="matrix(1 0 0 1 -142.84 108.79)"  >
<linearGradient id="SVGID_24" gradientUnits="userSpaceOnUse" gradientTransform="matrix(1 0 0 1 0 0)"  x1="199.67" y1="321.93" x2="202.5" y2="534.14">
<stop offset="0%" style="stop-color:rgb(1,1,1);stop-opacity: 0"/>
<stop offset="95%" style="stop-color:rgb(1,1,1);stop-opacity: 1"/>
</linearGradient>
<path style="stroke: none; stroke-width: 1; stroke-dasharray: none; stroke-linecap: butt; stroke-dashoffset: 0; stroke-linejoin: miter; stroke-miterlimit: 4; fill: url(#SVGID_24); fill-rule: nonzero; opacity: 1;" vector-effect="non-scaling-stroke"  transform=" translate(-200.2, -364.38)" d="M 171.74 381.14 C 179.86 366.34999999999997 186.4 350.27 198.23000000000002 338.23 C 199.92000000000002 336.51 202.67000000000002 334.82 204.52 336.38 C 206.06 337.68 205.52 340.13 204.9 342.03 L 199 359.36999999999995 L 211 339.69999999999993 C 213 336.48999999999995 215.19 333.05999999999995 218.73 331.7799999999999 C 219.79331294013608 331.3247082849471 220.99668705986392 331.3247082849471 222.06 331.7799999999999 C 223.82 332.6799999999999 224.06 335.0299999999999 224.06 336.99999999999994 C 224.03046709624087 342.3473017921757 223.37943107333768 347.67304492798695 222.12 352.86999999999995 C 225.40831587661265 347.3381978036855 229.54543779592856 342.35745395954984 234.38 338.10999999999996 C 236.16 339.41999999999996 236.44 341.93999999999994 236.38 344.10999999999996 C 236.15 351.86999999999995 233.54 359.34 230.95 366.65999999999997 C 229.54999999999998 370.65999999999997 228.10999999999999 374.65999999999997 225.51999999999998 377.99999999999994 C 220.85 383.99999999999994 213.18999999999997 386.69999999999993 205.76999999999998 388.25999999999993 C 198.35 389.81999999999994 190.64999999999998 390.5399999999999 183.76999999999998 393.73999999999995 C 181.04 395.0199999999999 178.42999999999998 396.68999999999994 175.45999999999998 397.21 C 172.21999999999997 397.77 164.86999999999998 396.03999999999996 164.02999999999997 392.02 C 163.65999999999997 389.85999999999996 170.11999999999998 384.08 171.73999999999998 381.14 z" stroke-linecap="round" />
</g>
		<g transform="matrix(1 0 0 1 61.02 101.97)"  >
<path style="stroke: none; stroke-width: 1; stroke-dasharray: none; stroke-linecap: butt; stroke-dashoffset: 0; stroke-linejoin: miter; stroke-miterlimit: 4; fill: rgb(104,225,253); fill-rule: nonzero; opacity: 1;" vector-effect="non-scaling-stroke"  transform=" translate(-404.06, -357.56)" d="M 467.2 337.93 L 474.56 304.46000000000004 L 431.21 301.38000000000005 C 431.21 301.38000000000005 426.21 331.11000000000007 412.03 321.18000000000006 C 397.84999999999997 311.25000000000006 410.33 299.93000000000006 410.33 299.93000000000006 L 367.40999999999997 295.93000000000006 L 360.13 336.2800000000001 C 360.13 336.2800000000001 345.37 329.3400000000001 336.96999999999997 338.6700000000001 C 331.03 345.2700000000001 332.7 356.20000000000005 343.33 358.2200000000001 C 347.62962231708866 359.1067483990325 352.05419544920665 359.2083848415773 356.39 358.5200000000001 L 347.76 405.6200000000001 L 451.40999999999997 419.1900000000001 z" stroke-linecap="round" />
</g>
		<g transform="matrix(1 0 0 1 95.11 116.79)"  >
<linearGradient id="SVGID_25" gradientUnits="userSpaceOnUse" gradientTransform="matrix(1 0 0 1 0 0)"  x1="393.44" y1="339.65" x2="607.06" y2="476.04">
<stop offset="0%" style="stop-color:rgb(1,1,1);stop-opacity: 0"/>
<stop offset="95%" style="stop-color:rgb(1,1,1);stop-opacity: 1"/>
</linearGradient>
<path style="stroke: none; stroke-width: 1; stroke-dasharray: none; stroke-linecap: butt; stroke-dashoffset: 0; stroke-linejoin: miter; stroke-miterlimit: 4; fill: url(#SVGID_25); fill-rule: nonzero; opacity: 1;" vector-effect="non-scaling-stroke"  transform=" translate(-438.15, -372.38)" d="M 432.4 324.43 C 430.01 323.38 426.4 322.34000000000003 425.4 324.75 C 424.89 325.95 425.47999999999996 327.3 426.04999999999995 328.46 L 432.44999999999993 341.32 L 416.99999999999994 335.53 C 416.00773486030425 335.0194638754139 414.8654560978264 334.8811133420703 413.7799999999999 335.14 C 411.2999999999999 336.07 412.1199999999999 339.75 413.37999999999994 342.07 L 422.80999999999995 359.44 C 418.62999999999994 360.05 414.62999999999994 354.76 410.80999999999995 356.66 C 407.80999999999995 358.16 408.30999999999995 362.55 409.56999999999994 365.66 C 415.11999999999995 379 426.48999999999995 389 434.5799999999999 401 C 437.37999999999994 405.14 439.8599999999999 410.32 437.98999999999995 414.94 C 437.16999999999996 416.94 435.61999999999995 419.45 437.10999999999996 421.06 C 437.81712029063857 421.65497876541684 438.6974644655818 422.00571349646987 439.61999999999995 422.06 C 447.54756302464773 423.41387473092976 455.62480757571143 423.6595575860246 463.61999999999995 422.79 Q 464.92999999999995 381.88 467.61999999999995 341.05 C 467.78 338.63 467.90999999999997 336.05 466.69999999999993 333.96000000000004 C 465.5667284034022 332.31133441482626 464.0498999626977 330.9626611632496 462.2799999999999 330.03000000000003 C 458.44999999999993 327.61 454.6799999999999 325.03000000000003 450.74999999999994 322.75000000000006 C 446.44999999999993 320.26000000000005 445.34999999999997 321.40000000000003 445.54999999999995 326.20000000000005 C 441.34999999999997 327.23 436.28 326.14000000000004 432.4 324.43000000000006 z" stroke-linecap="round" />
</g>
		<g transform="matrix(1 0 0 1 -154.91 -106.2)"  >
<path style="stroke: none; stroke-width: 1; stroke-dasharray: none; stroke-linecap: butt; stroke-dashoffset: 0; stroke-linejoin: miter; stroke-miterlimit: 4; fill: rgb(119,83,57); fill-rule: nonzero; opacity: 1;" vector-effect="non-scaling-stroke"  transform=" translate(-188.13, -149.39)" d="M 277.86 197 C 277.93 198.92 275.86 200.32 273.97 200.25 C 272.0804848122523 200.00039946906944 270.29387669762235 199.24359641857822 268.8 198.06 C 263.21000000000004 194.4 257.62 190.73 252.08 187.06 C 247.70000000000002 184.19 243.08 181.25 237.96 180.53 C 248.3 189.03 258.42 197.9 268.19 207.03 C 269.4 208.13 270.69 209.75 269.89 211.18 C 269.4583687860403 211.8341982509029 268.7990249298115 212.30464900237428 268.03999999999996 212.5 C 263.28999999999996 213.98 258.41999999999996 210.92 254.22999999999996 208.31 C 245.85265860471293 203.06994886891607 236.87900754141737 198.85001643847744 227.49999999999997 195.74000000000004 C 236.02371596337787 201.21785814241673 244.0690352472066 207.4065652838234 251.55 214.23999999999998 C 252.54999999999998 215.18 253.73999999999998 216.58 253.17 217.86 C 252.90923964669562 218.4044266997446 252.47231471127088 218.84487522335826 251.92999999999998 219.11 C 248.40999999999997 220.96 244.26 218.62 240.92999999999998 216.51000000000002 C 227.1486324247248 207.63070953922352 212.24814551532114 200.6226719135866 196.61999999999998 195.67000000000002 C 195.74999999999997 195.4 194.42999999999998 194.8 193.21999999999997 194.42000000000002 C 192.4626897952733 194.1186860214894 191.62914815184087 194.06615188429828 190.83999999999997 194.27 L 179.58999999999997 207.60000000000002 L 175.51999999999998 198.27 C 168.15999999999997 179.70000000000002 163.99999999999997 159.27 151.84999999999997 143.92000000000002 C 150.7492943831749 142.52741908584852 149.57774935363992 141.1923250350964 148.33999999999995 139.92 C 144.74755209376792 136.32695399118066 140.91180162570672 132.9857079388625 136.86 129.92000000000002 C 125.45999999999998 120.82000000000002 110.54999999999998 108.17000000000002 98.39999999999998 98.28000000000002 C 101.03999999999998 96.85000000000001 103.67999999999998 95.53000000000002 106.39999999999998 94.21000000000001 C 116.85999999999999 89.00000000000001 127.46999999999997 83.91000000000001 138.07999999999998 79 C 148.26999999999998 90.17 163.02999999999997 105.83 173.07999999999998 114.7 C 178.58999999999997 119.54 184.48 124.18 191.35 126.78 C 193.60999999999999 127.65 195.95 128.29 198.26 128.97 C 211.91955905083566 133.13735823126885 224.8255584519025 139.46038644947393 236.4899999999999 147.69999999999987 C 249.02999999999997 156.57 262.12 164.38 272.91999999999996 175.32999999999998 C 274.3037313784326 176.46990795328517 275.3425605067671 177.972747425609 275.91999999999996 179.67 C 276.37999999999994 181.39999999999998 275.54999999999995 183.58999999999997 273.77 183.97 C 272.49 184.24 271.2 183.44 270.10999999999996 182.73 L 247.49999999999994 167.73 C 255.60999999999996 178.33999999999997 269.49999999999994 183.58999999999997 276.86999999999995 194.73 C 277.3949148897508 195.38581667813497 277.7365255519985 196.1691057723796 277.85999999999996 197 z" stroke-linecap="round" />
</g>
		<g transform="matrix(1 0 0 1 156.16 -108.33)"  >
<path style="stroke: none; stroke-width: 1; stroke-dasharray: none; stroke-linecap: butt; stroke-dashoffset: 0; stroke-linejoin: miter; stroke-miterlimit: 4; fill: rgb(217,166,119); fill-rule: nonzero; opacity: 1;" vector-effect="non-scaling-stroke"  transform=" translate(-499.21, -147.26)" d="M 588.93 93.65 C 588.5999999999999 93.91000000000001 588.29 94.18 587.93 94.44000000000001 Q 569.25 109.34000000000002 550.53 124.22000000000001 C 546.4791380619009 127.30491175368944 542.6435578344715 130.6627150015698 539.05 134.26999999999998 C 519.6099999999999 154.73000000000002 518.29 186.73000000000002 503.10999999999996 210.33 L 497.10999999999996 193.91000000000003 C 497.4451818820573 192.74479029513924 497.2237661639994 191.4901012261449 496.50999999999993 190.51000000000002 C 496.26377503869537 190.24279365775092 495.96839683822515 190.02550394706017 495.63999999999993 189.87000000000003 C 494.2799999999999 189.15000000000003 492.35999999999996 189.53000000000003 490.7699999999999 190.06000000000003 C 475.14981507883505 195.01522162782513 460.2513602305033 202.00885423548257 446.45999999999975 210.86000000000016 C 443.12999999999994 213.01000000000005 438.93999999999994 215.35000000000005 435.4599999999999 213.46000000000004 C 434.8975585450095 213.23010869781578 434.4411264603547 212.79863774279062 434.17999999999995 212.25000000000003 C 433.60999999999996 210.97000000000003 434.73999999999995 209.57000000000002 435.79999999999995 208.63000000000002 C 443.28096475279335 201.79656528382344 451.326284036622 195.60785814241675 459.8499999999999 190.13000000000002 C 450.4782909016373 193.24105329569213 441.5062945677711 197.4467814686567 433.1199999999999 202.66000000000005 C 428.92999999999995 205.31000000000003 424.05999999999995 208.33 419.34 206.85000000000002 C 418.56654479821987 206.69388242420163 417.8887491747946 206.23240455293336 417.46 205.57000000000002 C 416.7 204.14000000000001 417.95 202.51000000000002 419.15 201.42000000000002 Q 433.82 187.67000000000002 449.42999999999995 174.92000000000002 C 444.21999999999997 175.64000000000001 439.65 178.58 435.2699999999999 181.45000000000002 L 418.5899999999999 192.45000000000002 C 416.9699999999999 193.51000000000002 415.2999999999999 194.57000000000002 413.37999999999994 194.64000000000001 C 411.46 194.71 409.37999999999994 193.29000000000002 409.48999999999995 191.4 C 409.59722541385645 190.52956176544888 409.94334257006307 189.70580293367703 410.48999999999995 189.02 C 417.84999999999997 177.88 431.73999999999995 172.60000000000002 439.85999999999996 162.02 L 417.24999999999994 177.02 C 416.1499999999999 177.74 414.86999999999995 178.53 413.5899999999999 178.23000000000002 C 411.8499999999999 177.85000000000002 411.0199999999999 175.70000000000002 411.43999999999994 173.97000000000003 C 411.85999999999996 172.24000000000004 413.16999999999996 170.87000000000003 414.43999999999994 169.59000000000003 C 422.99999999999994 161.00000000000003 432.99999999999994 154.27000000000004 442.99999999999994 147.44000000000003 C 445.6499999999999 145.67000000000002 448.24999999999994 143.85000000000002 450.84999999999997 142.00000000000003 C 462.51947252922565 133.76516796862606 475.42851508154274 127.44567851832859 489.0899999999999 123.28000000000006 C 491.4 122.60000000000002 493.73999999999995 121.96000000000004 496 121.09000000000003 C 502.87 118.49000000000004 508.76 113.84000000000003 514.27 109.01000000000003 C 524.35 100.14000000000003 533.48 90.29000000000003 542.47 80.36000000000004 C 547.64 82.21000000000004 552.89 83.95000000000005 558.1700000000001 85.46000000000004 C 564.9300000000001 87.46000000000004 574.0200000000001 88.03000000000003 581.1700000000001 90.63000000000004 L 582.6400000000001 91.20000000000003 z" stroke-linecap="round" />
</g>
		<g transform="matrix(1 0 0 1 -140.99 160.9)"  >
<path style="stroke: none; stroke-width: 1; stroke-dasharray: none; stroke-linecap: butt; stroke-dashoffset: 0; stroke-linejoin: miter; stroke-miterlimit: 4; fill: rgb(241,180,117); fill-rule: nonzero; opacity: 1;" vector-effect="non-scaling-stroke"  transform=" translate(-202.05, -416.48)" d="M 251.74 358.52 C 248.74 373.59 242.04000000000002 387.33 236.45000000000002 401.63 C 231.2325464154585 414.91749325248634 223.91615832424102 427.2814125833762 214.78000000000003 438.25 C 213.23000000000002 440.1 211.61000000000004 441.91 210.21000000000004 443.87 C 205.91000000000003 449.87 203.50000000000003 456.93 201.57000000000005 463.99 C 199.19000000000005 472.75 196.10000000000005 488.41 193.57000000000005 502.68 Q 182.47000000000006 503.19 171.34000000000006 502.68 C 168.54000000000005 502.53000000000003 165.79000000000005 502.34000000000003 163.03000000000006 502.12 Q 157.48000000000005 501.65 151.93000000000006 500.79 C 156.09000000000006 490.07 160.31000000000006 479.28000000000003 162.93000000000006 471.20000000000005 C 164.62523112902727 466.4069005679157 165.98517657366662 461.5017410771773 167.00000000000006 456.5200000000001 C 171.16000000000005 433.52000000000004 160.59000000000006 410.79 156.68000000000006 387.73 C 156.68000000000006 387.73 165.06000000000006 391.07 170.51000000000008 389.73 C 172.51000000000008 389.24 175.42000000000007 384.93 176.70000000000007 383.34000000000003 C 187.0578801717051 370.6347619399415 195.6801263813971 356.6084792017881 202.34000000000003 341.6300000000001 C 203.9200000000001 338.01000000000005 206.1500000000001 333.78000000000003 210.07000000000008 333.40000000000003 C 210.6716948227866 333.31582470133236 211.28424945578695 333.4355192847922 211.8100000000001 333.74 C 213.0200000000001 334.5 212.8100000000001 336.27 212.45000000000007 337.67 C 209.9602683371108 347.4848612198572 206.63823711628507 357.06957365456583 202.52000000000007 366.32 C 208.65836573500155 358.5904953951119 213.85491685603174 350.157849131528 218.00000000000006 341.19999999999993 C 220.08000000000007 336.67 222.46000000000006 331.46 227.21000000000006 330.09999999999997 C 227.95977826547102 329.81706228521597 228.79159205576116 329.8458696892087 229.52000000000007 330.17999999999995 C 230.95000000000007 330.92999999999995 230.76000000000008 333.00999999999993 230.38000000000008 334.54999999999995 Q 225.6200000000001 354.09 219.63000000000008 373.31999999999994 C 223.63000000000008 369.88999999999993 225.7800000000001 364.8999999999999 227.85000000000008 360.10999999999996 Q 231.85000000000008 350.92999999999995 235.7800000000001 341.75999999999993 C 236.54000000000008 339.98999999999995 237.3700000000001 338.17999999999995 238.91000000000008 337.0799999999999 C 240.45000000000007 335.9799999999999 242.9900000000001 336.0299999999999 243.91000000000008 337.6499999999999 C 244.3078882222229 338.4311587186563 244.48754034832925 339.30523540913515 244.4300000000001 340.1799999999999 C 244.3600000000001 353.5399999999999 235.6800000000001 365.5399999999999 234.69000000000008 378.8699999999999 C 238.2400000000001 370.5299999999999 241.79000000000008 362.2199999999999 245.3400000000001 353.8699999999999 C 245.8300000000001 352.6599999999999 246.47000000000008 351.2999999999999 247.72000000000008 350.8699999999999 C 249.38000000000008 350.2299999999999 251.2700000000001 351.5899999999999 251.8700000000001 353.2499999999999 C 252.31036030938176 354.98539484586325 252.26538984681437 356.808428213018 251.7400000000001 358.51999999999987 z" stroke-linecap="round" />
</g>
		<g transform="matrix(1 0 0 1 160.42 146.48)"  >
<linearGradient id="SVGID_26" gradientUnits="userSpaceOnUse" gradientTransform="matrix(1 0 0 1 0 0)"  x1="519.52" y1="331.59" x2="470.46" y2="559.58">
<stop offset="0%" style="stop-color:rgb(229,198,214);stop-opacity: 1"/>
<stop offset="42%" style="stop-color:rgb(234,212,208);stop-opacity: 1"/>
<stop offset="100%" style="stop-color:rgb(240,233,203);stop-opacity: 1"/>
</linearGradient>
<path style="stroke: none; stroke-width: 1; stroke-dasharray: none; stroke-linecap: butt; stroke-dashoffset: 0; stroke-linejoin: miter; stroke-miterlimit: 4; fill: url(#SVGID_26); fill-rule: nonzero; opacity: 1;" vector-effect="non-scaling-stroke"  transform=" translate(-503.46, -402.06)" d="M 597.61 459.12 C 597.85 466.75 596.11 474.93 591.92 481.12 C 589.9787451545124 484.0059859323017 587.394302303675 486.4021581118861 584.37 488.12 C 583.6680983117104 488.5060678279609 582.9471837473649 488.85651240785114 582.21 489.17 C 568.4200000000001 478.17 553.77 466.5 544.98 459.82 C 540.2900366432034 456.08747783459916 535.3483199681888 452.6827386244302 530.19 449.63 C 499.19000000000005 432.27 459.19000000000005 442.45 426.56000000000006 428.37 C 425.21000000000004 427.81 423.69000000000005 426.94 423.4700000000001 425.5 C 423.2500000000001 424.06 424.2200000000001 422.9 425.3200000000001 422.03 C 431.3200000000001 417.13 440.0800000000001 418.55999999999995 447.85000000000014 419.03 C 449.85000000000014 419.17999999999995 452.3100000000001 419.03 453.48000000000013 417.36999999999995 C 454.8800000000001 415.36999999999995 453.6300000000001 412.72999999999996 452.35000000000014 410.68999999999994 C 442.151449691273 394.2354042832443 429.8136839794682 379.2074743388302 415.6600000000001 365.99999999999994 C 412.22000000000014 362.78999999999996 408.38000000000017 358.71999999999997 409.47000000000014 354.13999999999993 C 409.57829219006993 353.43722067633706 409.9326932724115 352.7957547172988 410.47000000000014 352.3299999999999 C 411.8000000000001 351.3299999999999 413.6800000000001 352.2199999999999 415.08000000000015 353.12999999999994 C 425.07399154753153 359.6961874108699 434.4972865307771 367.09231989505736 443.25000000000017 375.23999999999995 C 436.9661758961169 365.4244437781389 429.5373442795769 356.3910113876693 421.1200000000002 348.3299999999999 C 416.8600000000002 344.25999999999993 411.9900000000002 339.6099999999999 412.2800000000002 333.7199999999999 C 412.2630456359571 332.7771352812451 412.6229901361107 331.8664756958565 413.2800000000002 331.18999999999994 C 414.6700000000002 329.86999999999995 416.9000000000002 330.8999999999999 418.5200000000002 331.90999999999997 Q 438.4400000000002 344.7 457.62000000000023 358.78999999999996 C 455.28000000000026 353.08 450.62000000000023 348.7 446.0000000000002 344.52 C 440.1900000000002 339.24 434.42000000000024 333.90999999999997 428.5900000000002 328.59 C 426.9300000000002 327.07 425.2000000000002 325.45 424.5900000000002 323.31 C 423.9800000000002 321.17 424.9300000000002 318.36 427.1200000000002 317.86 C 428.1428969326912 317.7536980363267 429.1759475027659 317.91209912373813 430.1200000000002 318.32 C 444.9800000000002 323.5 455.07000000000016 337.84 469.52000000000015 344.06 Q 457.63000000000017 333.3 445.78000000000014 322.54 C 444.6100000000001 321.54 443.3600000000001 320.28000000000003 443.29000000000013 318.70000000000005 C 443.21000000000015 316.58000000000004 445.4400000000001 315.00000000000006 447.5500000000001 314.96000000000004 C 449.66000000000014 314.92 451.60000000000014 316.05 453.41000000000014 317.11 C 469.03000000000014 326.25 481.79000000000013 339.01 495.57000000000016 350.74 C 508.3936079429288 361.706109688711 519.3762904237303 374.6570995431084 528.1000000000001 389.1000000000001 C 529.5700000000002 391.51000000000005 530.9700000000001 394.01000000000005 532.6000000000001 396.35 C 537.6000000000001 403.44 544.6000000000001 408.84000000000003 551.7400000000001 413.74 C 562.3800000000001 421.01 579.9800000000001 431.69 594.7400000000001 440.11 C 596.1000000000001 446.41 597.4000000000001 452.7 597.6100000000001 459.12 z" stroke-linecap="round" />
</g>
		<g transform="matrix(1 0 0 1 -170.18 -79.78)"  >
<linearGradient id="SVGID_27" gradientUnits="userSpaceOnUse" gradientTransform="matrix(1 0 0 1 0 0)"  x1="184.21" y1="170.25" x2="106.36" y2="193.63">
<stop offset="0%" style="stop-color:rgb(1,1,1);stop-opacity: 0"/>
<stop offset="95%" style="stop-color:rgb(1,1,1);stop-opacity: 1"/>
</linearGradient>
<path style="stroke: none; stroke-width: 1; stroke-dasharray: none; stroke-linecap: butt; stroke-dashoffset: 0; stroke-linejoin: miter; stroke-miterlimit: 4; fill: url(#SVGID_27); fill-rule: nonzero; opacity: 1;" vector-effect="non-scaling-stroke"  transform=" translate(-172.87, -175.81)" d="M 193.91 193.79 L 193.19 194.47 L 179.56 207.65 L 175.49 198.32 C 168.13 179.75 163.97 159.32 151.82 143.97 C 152.31 144.23 153.82 145.1 158.82 147.89 C 166.10999999999999 151.97 179.01 180.51 182.89999999999998 186.89 C 185.35349428781623 190.72073493951945 189.3928187324636 193.25219167594696 193.90999999999997 193.79 z" stroke-linecap="round" />
</g>
</g>
</g>
</svg>