<svg viewBox="0 0 400 300" xmlns="http://www.w3.org/2000/svg"><path d="m130.57 144.27s9-8.44 14.26-9.19 5.45 3.19 3.85 6.94-16.8 12-19.71 18.21z" fill="#ffc9b0"/><path d="m129 161.23a.84.84 0 0 1 -.27 0 1 1 0 0 1 -.72-1.06l1.59-16a1.08 1.08 0 0 1 .31-.63c.38-.35 9.31-8.67 14.81-9.45 2.35-.33 4 .14 5 1.43 1.57 2 .6 5.2-.12 6.89s-3.63 4-8.22 7.5-10 7.52-11.5 10.74a1 1 0 0 1 -.88.58zm2.55-16.48-1.18 11.84a75.25 75.25 0 0 1 9.83-8.28c3.44-2.58 7-5.26 7.59-6.68.91-2.14 1.05-4 .37-4.89s-2.07-.83-3.16-.67c-4.42.62-11.95 7.3-13.48 8.68z" fill="#093f68"/><path d="m139.58 215s4.37-12.44 3.81-22.58a81.77 81.77 0 0 0 9.79-19.09c3.38-10.14 5.64-16.61 1.69-19.71s-7.6-.28-11.82 5.63-6.48 9.86-6.48 9.86-1.41-6.2-2-8.73 1.13-21.68 1.69-24.22 5.07-9 5.63-14.36-2.2-8.16-7.43-5.35-12 15.21-13.68 19.43-6.2 28.16-7 36.32-1.13 31.26 0 37.45 2.52 5.35 2.52 5.35z" fill="#ffc9b0"/><path d="m116.12 216.08a1.53 1.53 0 0 1 -.66-.15c-.74-.33-1.82-1.32-2.68-6.06-1.15-6.31-.85-29.59 0-37.73.86-8.3 5.4-32.31 7.11-36.59 1.79-4.47 8.62-17 14.13-19.94 3.42-1.83 5.54-1.28 6.71-.49 1.76 1.18 2.54 3.6 2.2 6.83-.38 3.57-2.34 7.46-3.92 10.58a23.18 23.18 0 0 0 -1.73 3.89c-.59 2.63-2.19 21.56-1.69 23.78.33 1.5 1 4.29 1.42 6.31 1.08-1.74 2.84-4.45 5.24-7.8 3.32-4.65 6-6.89 8.59-7.27a6.09 6.09 0 0 1 4.66 1.43c4.43 3.48 2.2 10.16-1.17 20.26l-.19.56a82.6 82.6 0 0 1 -9.72 19.07c.45 10.14-3.71 22.1-3.89 22.61a1 1 0 0 1 -.94.67h-23.13a1.86 1.86 0 0 1 -.34.04zm22.05-99.69a7 7 0 0 0 -3.21 1c-4.76 2.55-11.43 14.41-13.23 18.91-1.62 4.07-6.14 28.06-7 36.05s-1.13 31 0 37.17c.61 3.35 1.25 4.29 1.47 4.53h22.64c.87-2.7 4-13 3.53-21.52a1 1 0 0 1 .19-.64 82.06 82.06 0 0 0 9.66-18.83l.18-.55c3.1-9.3 5.15-15.45 1.84-18.05a4.11 4.11 0 0 0 -3.15-1c-2 .29-4.31 2.34-7.25 6.45-4.14 5.8-6.4 9.73-6.42 9.77a1 1 0 0 1 -1.84-.27s-1.41-6.2-2-8.74c-.61-2.78 1.1-22 1.69-24.64a23.73 23.73 0 0 1 1.91-4.36c1.5-3 3.37-6.68 3.71-9.89.25-2.42-.23-4.23-1.32-5a2.56 2.56 0 0 0 -1.4-.39z" fill="#093f68"/><path d="m106.2 213.91h43.36v21.68h-43.36z" fill="#68e1fd"/><path d="m149.56 236.59h-43.36a1 1 0 0 1 -1-1v-21.68a1 1 0 0 1 1-1h43.36a1 1 0 0 1 1 1v21.68a1 1 0 0 1 -1 1zm-42.36-2h41.36v-19.68h-41.36z" fill="#093f68"/><path d="m109.01 205.84h37.74v8.07h-37.74z" fill="#fff"/><path d="m146.75 214.91h-37.75a1 1 0 0 1 -1-1v-8.07a1 1 0 0 1 1-1h37.74a1 1 0 0 1 1 1v8.07a1 1 0 0 1 -.99 1zm-36.74-2h35.74v-6.07h-35.75z" fill="#093f68"/><path d="m269.43 144.27s-9-8.44-14.26-9.19-5.45 3.19-3.85 6.94 16.8 12 19.71 18.21z" fill="#ffc9b0"/><path d="m271 161.23a1 1 0 0 1 -.91-.58c-1.51-3.22-6.81-7.21-11.5-10.74s-7.45-5.68-8.22-7.5-1.69-4.84-.12-6.89c1-1.29 2.68-1.77 5-1.43 5.5.78 14.43 9.1 14.81 9.45a1.08 1.08 0 0 1 .31.63l1.59 16a1 1 0 0 1 -.72 1.06.84.84 0 0 1 -.24 0zm-17-25.23a2.55 2.55 0 0 0 -2.09.75c-.68.88-.54 2.75.37 4.89.6 1.42 4.15 4.1 7.59 6.68a75.25 75.25 0 0 1 9.83 8.28l-1.18-11.84c-1.53-1.38-9.06-8.06-13.45-8.68a7.37 7.37 0 0 0 -1.07-.08z" fill="#093f68"/><path d="m260.42 215s-4.37-12.44-3.81-22.58a81.77 81.77 0 0 1 -9.79-19.09c-3.38-10.14-5.64-16.61-1.69-19.71s7.6-.28 11.82 5.63 6.48 9.86 6.48 9.86 1.41-6.2 2-8.73-1.13-21.68-1.69-24.22-5.07-9-5.63-14.36 2.2-8.16 7.43-5.35 12 15.21 13.68 19.43 6.2 28.16 7 36.32 1.13 31.26 0 37.45-2.52 5.35-2.52 5.35z" fill="#ffc9b0"/><path d="m283.88 216.08a1.86 1.86 0 0 1 -.34 0h-23.12a1 1 0 0 1 -.94-.67c-.18-.51-4.34-12.47-3.89-22.61a82.6 82.6 0 0 1 -9.72-19.07l-.19-.56c-3.37-10.1-5.6-16.78-1.17-20.26a6.09 6.09 0 0 1 4.66-1.43c2.62.38 5.27 2.62 8.59 7.27 2.4 3.35 4.16 6.06 5.24 7.8.46-2 1.09-4.81 1.42-6.31.5-2.22-1.1-21.15-1.69-23.78a23.18 23.18 0 0 0 -1.73-3.89c-1.58-3.12-3.54-7-3.92-10.58-.34-3.23.44-5.65 2.2-6.83 1.17-.79 3.29-1.34 6.71.49 5.51 3 12.34 15.47 14.13 19.94 1.71 4.28 6.25 28.29 7.11 36.59.84 8.14 1.14 31.42 0 37.73-.86 4.74-1.94 5.73-2.68 6.06a1.53 1.53 0 0 1 -.67.11zm-22.74-2.08h22.64c.22-.24.86-1.18 1.47-4.53 1.12-6.18.82-29.12 0-37.17s-5.35-32-7-36.05c-1.8-4.5-8.47-16.36-13.23-18.91-2-1.07-3.63-1.28-4.65-.6s-1.57 2.54-1.32 5c.34 3.21 2.21 6.91 3.71 9.89a23.73 23.73 0 0 1 1.91 4.36c.59 2.66 2.3 21.86 1.69 24.64-.57 2.54-2 8.74-2 8.74a1 1 0 0 1 -1.84.27s-2.28-4-6.42-9.77c-2.94-4.11-5.24-6.16-7.25-6.45a4.06 4.06 0 0 0 -3.15 1c-3.31 2.6-1.26 8.75 1.84 18.05l.18.55a82.06 82.06 0 0 0 9.66 18.83 1 1 0 0 1 .19.64c-.43 8.51 2.7 18.85 3.57 21.51z" fill="#093f68"/><path d="m250.44 213.91h43.36v21.68h-43.36z" fill="#68e1fd" transform="matrix(-1 0 0 -1 544.24 449.51)"/><path d="m293.8 236.59h-43.36a1 1 0 0 1 -1-1v-21.68a1 1 0 0 1 1-1h43.36a1 1 0 0 1 1 1v21.68a1 1 0 0 1 -1 1zm-42.36-2h41.36v-19.68h-41.36z" fill="#093f68"/><path d="m253.25 205.84h37.74v8.07h-37.74z" fill="#fff" transform="matrix(-1 0 0 -1 544.24 419.76)"/><path d="m291 214.91h-37.75a1 1 0 0 1 -1-1v-8.07a1 1 0 0 1 1-1h37.75a1 1 0 0 1 1 1v8.07a1 1 0 0 1 -1 1zm-36.74-2h35.74v-6.07h-35.75z" fill="#093f68"/><path d="m182.94 179.06h34.06a0 0 0 0 1 0 0v3.81a11.73 11.73 0 0 1 -11.73 11.73h-10.6a11.73 11.73 0 0 1 -11.73-11.73v-3.81a0 0 0 0 1 0 0z" fill="#093f68"/><path d="m205.27 195.61h-10.6a12.74 12.74 0 0 1 -12.73-12.73v-3.82a1 1 0 0 1 1-1h34.06a1 1 0 0 1 1 1v3.82a12.74 12.74 0 0 1 -12.73 12.73zm-21.33-15.55v2.82a10.74 10.74 0 0 0 10.73 10.73h10.6a10.75 10.75 0 0 0 10.73-10.73v-2.82z" fill="#093f68"/><path d="m236.2 113.41a35.75 35.75 0 1 0 -64.2 21.59 52.4 52.4 0 0 1 10.69 31.68h35.62a50.9 50.9 0 0 1 10.41-31.33 35.55 35.55 0 0 0 7.48-21.94z" fill="#fff"/><path d="m218.26 167.68h-35.62a1 1 0 0 1 -1-1 51.69 51.69 0 0 0 -10.49-31.09 36.74 36.74 0 0 1 26.69-58.84 36.45 36.45 0 0 1 27.68 9.79 36.88 36.88 0 0 1 11.68 26.87 36.4 36.4 0 0 1 -7.74 22.59 50 50 0 0 0 -10.2 30.71 1 1 0 0 1 -1 .97zm-34.63-2h33.64a51.86 51.86 0 0 1 10.61-30.94 34.39 34.39 0 0 0 7.32-21.33 34.86 34.86 0 0 0 -11-25.41 34.75 34.75 0 0 0 -51.41 46.38 53.75 53.75 0 0 1 10.84 31.3z" fill="#093f68"/><rect fill="#ffbc0e" height="9.89" rx="4.14" width="43.29" x="178.32" y="176.6"/><path d="m217.47 187.5h-35a5.15 5.15 0 0 1 -5.14-5.15v-1.6a5.15 5.15 0 0 1 5.14-5.15h35a5.15 5.15 0 0 1 5.14 5.15v1.6a5.15 5.15 0 0 1 -5.14 5.15zm-35-9.9a3.15 3.15 0 0 0 -3.14 3.15v1.6a3.15 3.15 0 0 0 3.14 3.15h35a3.15 3.15 0 0 0 3.14-3.15v-1.6a3.15 3.15 0 0 0 -3.14-3.15z" fill="#093f68"/><rect fill="#ffbc0e" height="9.89" rx="4.14" width="43.29" x="178.32" y="166.71"/><path d="m217.47 177.6h-35a5.14 5.14 0 0 1 -5.14-5.14v-1.6a5.15 5.15 0 0 1 5.14-5.15h35a5.15 5.15 0 0 1 5.14 5.15v1.6a5.14 5.14 0 0 1 -5.14 5.14zm-35-9.89a3.15 3.15 0 0 0 -3.14 3.15v1.6a3.14 3.14 0 0 0 3.14 3.14h35a3.14 3.14 0 0 0 3.14-3.14v-1.6a3.15 3.15 0 0 0 -3.14-3.15z" fill="#093f68"/><rect fill="#ffbc0e" height="9.89" rx="4.14" width="43.29" x="178.32" y="156.82"/><path d="m217.47 167.71h-35a5.14 5.14 0 0 1 -5.14-5.14v-1.57a5.14 5.14 0 0 1 5.14-5.14h35a5.14 5.14 0 0 1 5.14 5.14v1.6a5.14 5.14 0 0 1 -5.14 5.11zm-35-9.88a3.14 3.14 0 0 0 -3.14 3.14v1.6a3.14 3.14 0 0 0 3.14 3.14h35a3.14 3.14 0 0 0 3.14-3.14v-1.57a3.14 3.14 0 0 0 -3.14-3.14z" fill="#093f68"/><rect fill="#fff" height="34.06" rx="4.58" width="34.06" x="183.25" y="98.71"/><path d="m212.72 133.77h-24.89a5.59 5.59 0 0 1 -5.58-5.58v-24.9a5.58 5.58 0 0 1 5.58-5.58h24.89a5.58 5.58 0 0 1 5.58 5.58v24.9a5.59 5.59 0 0 1 -5.58 5.58zm-24.89-34.06a3.58 3.58 0 0 0 -3.58 3.58v24.9a3.58 3.58 0 0 0 3.58 3.58h24.89a3.58 3.58 0 0 0 3.58-3.58v-24.9a3.58 3.58 0 0 0 -3.58-3.58z" fill="#093f68"/><path d="m188.99 104.46h22.57v22.57h-22.57z" fill="#68e1fd"/><g fill="#093f68"><path d="m211.56 128h-22.56a1 1 0 0 1 -1-1v-22.54a1 1 0 0 1 1-1h22.57a1 1 0 0 1 1 1v22.54a1 1 0 0 1 -1.01 1zm-21.56-2h20.57v-20.54h-20.57z"/><path d="m183.25 110.88h-7.07a1 1 0 0 1 0-2h7.07a1 1 0 0 1 0 2z"/><path d="m183.25 118.13h-11.75a1 1 0 0 1 0-2h11.75a1 1 0 0 1 0 2z"/><path d="m182.46 126h-4.14a1 1 0 0 1 0-2h4.14a1 1 0 0 1 0 2z"/><path d="m227.44 109.75h-9.35a1 1 0 0 1 0-2h9.35a1 1 0 0 1 0 2z"/><path d="m222.76 118.13h-5.46a1 1 0 0 1 0-2h5.46a1 1 0 0 1 0 2z"/><path d="m225.54 126h-8.24a1 1 0 0 1 0-2h8.24a1 1 0 0 1 0 2z"/><path d="m206 99.71a1 1 0 0 1 -1-1v-8a1 1 0 0 1 2 0v8a1 1 0 0 1 -1 1z"/><path d="m200 99.71a1 1 0 0 1 -1-1v-4a1 1 0 0 1 2 0v4a1 1 0 0 1 -1 1z"/><path d="m191.15 99.71a1 1 0 0 1 -1-1v-5.91a1 1 0 1 1 2 0v5.91a1 1 0 0 1 -1 1z"/><path d="m191.15 140.81a1 1 0 0 1 -1-1v-7a1 1 0 0 1 2 0v7a1 1 0 0 1 -1 1z"/><path d="m200 146.89a1 1 0 0 1 -1-1v-13.12a1 1 0 0 1 2 0v13.12a1 1 0 0 1 -1 1z"/><path d="m207.72 139.11a1 1 0 0 1 -1-1v-5.34a1 1 0 0 1 2 0v5.34a1 1 0 0 1 -1 1z"/></g><path d="m200.27 111.23h-7a1 1 0 0 1 0-2h7a1 1 0 0 1 0 2z" fill="#fff"/><path d="m152.51 104.1h-.16l-14.57-2.38a1 1 0 0 1 .33-2l14.56 2.39a1 1 0 0 1 -.16 2z" fill="#dfeaef"/><path d="m169.94 78a1.05 1.05 0 0 1 -.68-.26l-10.48-9.6a1 1 0 0 1 -.06-1.42 1 1 0 0 1 1.41-.06l10.48 9.6a1 1 0 0 1 -.67 1.74z" fill="#dfeaef"/><path d="m249 104.1a1 1 0 0 1 -.16-2l14.57-2.39a1 1 0 1 1 .32 2l-14.56 2.38z" fill="#dfeaef"/><path d="m231.58 78a1 1 0 0 1 -.68-1.74l10.48-9.6a1 1 0 1 1 1.35 1.48l-10.48 9.6a1 1 0 0 1 -.67.26z" fill="#dfeaef"/><path d="m200.27 69.46a1 1 0 0 1 -1-1v-14.46a1 1 0 1 1 2 0v14.46a1 1 0 0 1 -1 1z" fill="#dfeaef"/></svg>