<svg viewBox="0 0 400 300" xmlns="http://www.w3.org/2000/svg"><path d="m113.59 136s9.1-42.81 32-42.81 35.08 67.3-20.62 74.62z" fill="#f4a28c"/><path d="m113.59 136s9.1-42.81 32-42.81 35.08 67.3-20.62 74.62z" opacity=".1"/><path d="m132.82 46.98h142.47v176.68h-142.47z" fill="#24285b"/><path d="m146.61 57.7h114.38v151.15h-114.38z" fill="#fff"/><path d="m173.67 36.36h62.3v26.45h-62.3z" fill="#ffd200"/><g fill="#a8a8a8"><path d="m197.84 125.5h28.26v6.23h-28.26z" opacity=".21"/><path d="m197.84 137.88h44.77v6.23h-44.77z" opacity=".21"/><path d="m197.84 165.56h28.26v6.23h-28.26z" opacity=".21"/><path d="m197.84 177.95h44.77v6.23h-44.77z" opacity=".21"/></g><path d="m161.16 81.96h25.53v25.53h-25.53z" fill="#68e1fd"/><path d="m161.16 121.79h25.53v25.53h-25.53z" fill="#68e1fd"/><path d="m161.16 161.62h25.53v25.53h-25.53z" fill="#68e1fd"/><path d="m169.75 94.69 3.01 4.39 6.24-8.08" fill="none" stroke="#fff" stroke-linecap="round" stroke-linejoin="round" stroke-width="4"/><path d="m169.75 134.46 3.01 4.39 6.24-8.09" fill="none" stroke="#fff" stroke-linecap="round" stroke-linejoin="round" stroke-width="4"/><path d="m206.88 163.46-3.76 6.54 12.66-1.61 13.42-4.88s6.87 11 18.37 17.52a60 60 0 0 1 27.43 31.86l.32.89v-61l-17.62-18.47z" opacity=".1"/><path d="m169.75 174.52 3.01 4.39 6.24-8.08" fill="none" stroke="#fff" stroke-linecap="round" stroke-linejoin="round" stroke-width="4"/><path d="m273.38 131s-14.38-12.89-35.67-4c-16.67 7-8.78 15.23.18 14.88s24-6.46 22.95 8.42c-.95 13.11-17.21-5.74-26.53-5s-8.25 11.33 3.23 17.14 27.6 18.39 40.15 8.51 8.96-27.43-4.31-39.95z" fill="#f4a28c"/><path d="m248.68 94.05h10.22v89.26h-10.22z" fill="#68e1fd" transform="matrix(.43318722 .90130396 -.90130396 .43318722 268.85 -150.14)"/><path d="m269.62 174.63 50.35 81.97 41.08-35.07-72.25-71.02z" fill="#68e1fd"/><path d="m211.35 153.41-10.74 11.08 15.17-1.87z" fill="#24285b"/><path d="m131.53 120.05s17.68-18.07 25.31-16.47c6.3 1.33 6.31 13.86-7.42 24.3a24.33 24.33 0 0 0 -9.65 17.76c-.39 5.83-2.32 12.77-8.24 18-12.45 11-21.69 1.42-20.49-13.46s2.01-19.28 20.49-30.13z" fill="#f4a28c"/><path d="m138.41 161.28-6.65 91.95-54.5-10.45 27.41-91.73z" fill="#68e1fd"/><path d="m197.84 84.77h28.26v6.23h-28.26z" fill="#a8a8a8" opacity=".21"/><path d="m197.84 97.15h44.77v6.23h-44.77z" fill="#a8a8a8" opacity=".21"/><path d="m110.49 249.15 11.81-92.75 16.11 4.88-6.65 91.95z" opacity=".1"/><path d="m269.62 174.63 8.88-11.17 59.64 77.63-18.17 15.51z" opacity=".1"/></svg>